<svg xmlns="http://www.w3.org/2000/svg" viewBox="0 0 300 220" role="img" aria-label="Dance with B logo mark">
  <defs>
    <linearGradient id="bwbGradient" x1="0%" y1="0%" x2="100%" y2="100%">
      <stop offset="0%" stop-color="#f75d02" />
      <stop offset="100%" stop-color="#d90468" />
    </linearGradient>
  </defs>
  <g transform="translate(60,20)">
    <path
      fill="url(#bwbGradient)"
      fill-rule="evenodd"
      d="M40,30 L56,30 C90,30 104,38 104,54 C104,68 92,78 56,78 C96,78 112,88 112,106 C112,122 94,130 56,130 L40,130 Z M62,38 C80,38 92,44 92,54 C92,64 80,70 62,70 Z M62,86 C86,86 100,94 100,106 C100,118 84,122 62,122 Z"
    />
    <path
      fill="url(#bwbGradient)"
      d="M100,128 C118,120 140,124 148,142 C138,136 122,134 108,140 C112,136 108,130 100,128 Z"
    />
    <circle cx="150" cy="145" r="4" fill="url(#bwbGradient)" />
  </g>
</svg>
